<svg id="Layer_1" data-name="Layer 1" xmlns="http://www.w3.org/2000/svg" viewBox="0 0 85.14 85.09"><defs><style>.cls-1{font-size:13px;font-family:Founders Grotesk Text;}.cls-2{fill:none;stroke:#000;stroke-miterlimit:10;opacity:0.4;}</style></defs><title>Shuffle_Type</title><text class="cls-1" transform="translate(14.79 26.17) rotate(-52.05)">S</text><text class="cls-1" transform="matrix(0.86, -0.51, 0.51, 0.86, 22.12, 17.5)">H</text><text class="cls-1" transform="translate(33.48 11.56) rotate(-8.15)">U</text><text class="cls-1" transform="translate(45.64 10.49) rotate(12.55)">F</text><text class="cls-1" transform="translate(56.4 13.46) rotate(32.58)">F</text><text class="cls-1" transform="matrix(0.61, 0.79, -0.79, 0.61, 65.51, 19.93)">L</text><text class="cls-1" transform="translate(71.9 29.13) rotate(72.77)">E</text><text class="cls-1" transform="matrix(0.02, 1, -1, 0.02, 74.53, 40.36)"> </text><text class="cls-1" transform="matrix(-0.27, 0.96, -0.96, -0.27, 74.59, 47.01)">T</text><text class="cls-1" transform="matrix(-0.6, 0.8, -0.8, -0.6, 70.6, 58.58)">Y</text><text class="cls-1" transform="matrix(-0.85, 0.53, -0.53, -0.85, 63.16, 67.45)">P</text><text class="cls-1" transform="translate(53.01 73.14) rotate(168.57)">E</text><text class="cls-1" transform="translate(41.69 74.83) rotate(-171.4)">F</text><text class="cls-1" transform="translate(31.49 72.96) rotate(-151.97)">A</text><text class="cls-1" transform="translate(21.4 67.01) rotate(-131.07)">C</text><text class="cls-1" transform="translate(13.9 57.43) rotate(-109.98)">E</text><text class="cls-1" transform="translate(10.5 46.64) rotate(-89.07)">S</text><line class="cls-2" x1="31.95" y1="61.99" x2="54.45" y2="23.01"/></svg>